<svg width="36" height="36" viewBox="0 0 36 36" fill="none"
    xmlns="http://www.w3.org/2000/svg">
    <path d="M36 25.909C36 29.727 34.001 31 18 31C1.999 31 0 29.727 0 25.909C0 13.257 8.059 4 18 4C27.941 4 36 13.257 36 25.909Z" fill="#BFDFE9"/>
    <path d="M17.5144 29C17.2994 29 17.0989 28.8701 17.0269 28.6659C16.9374 28.41 17.0824 28.1336 17.3519 28.0476L34.3226 22.6751C34.5931 22.5911 34.8831 22.7289 34.9736 22.9838C35.0631 23.2397 34.9171 23.5162 34.6486 23.6021L17.6779 28.9746C17.6224 28.9922 17.5679 29 17.5144 29ZM17.5144 26.0696C17.355 26.0696 17.1976 26.0002 17.0978 25.8674C16.9312 25.6486 16.9826 25.3438 17.212 25.1855L32.1256 14.929C32.354 14.7698 32.6769 14.8196 32.8436 15.0375C33.0102 15.2553 32.9577 15.562 32.7284 15.7193L17.8147 25.9758C17.7252 26.0393 17.6193 26.0696 17.5144 26.0696ZM17.5144 22.1623C17.4208 22.1623 17.3262 22.1389 17.2408 22.0871C17.0011 21.9445 16.9281 21.6417 17.0793 21.4141L25.8218 8.22715C25.973 7.99858 26.2929 7.93313 26.5305 8.07379C26.7711 8.21738 26.8431 8.51922 26.6919 8.74779L17.9494 21.9347C17.8517 22.0812 17.6851 22.1623 17.5144 22.1623Z" fill="#2F2B2D"/>
    <path d="M32.5 29C33.6046 29 34.5 28.1046 34.5 27C34.5 25.8954 33.6046 25 32.5 25C31.3954 25 30.5 25.8954 30.5 27C30.5 28.1046 31.3954 29 32.5 29Z" fill="#0B4458"/>
    <path d="M32.5 22C33.6046 22 34.5 21.1046 34.5 20C34.5 18.8954 33.6046 18 32.5 18C31.3954 18 30.5 18.8954 30.5 20C30.5 21.1046 31.3954 22 32.5 22Z" fill="#0B4458"/>
    <path d="M28.5 15C29.6046 15 30.5 14.1046 30.5 13C30.5 11.8954 29.6046 11 28.5 11C27.3954 11 26.5 11.8954 26.5 13C26.5 14.1046 27.3954 15 28.5 15Z" fill="#0B4458"/>
    <path d="M21.5 10C22.6046 10 23.5 9.10457 23.5 8C23.5 6.89543 22.6046 6 21.5 6C20.3954 6 19.5 6.89543 19.5 8C19.5 9.10457 20.3954 10 21.5 10Z" fill="#0B4458"/>
    <path d="M28 30C28.8284 30 29.5 29.3284 29.5 28.5C29.5 27.6716 28.8284 27 28 27C27.1716 27 26.5 27.6716 26.5 28.5C26.5 29.3284 27.1716 30 28 30Z" fill="#0B4458"/>
    <path d="M28 24C28.8284 24 29.5 23.3284 29.5 22.5C29.5 21.6716 28.8284 21 28 21C27.1716 21 26.5 21.6716 26.5 22.5C26.5 23.3284 27.1716 24 28 24Z" fill="#0B4458"/>
    <path d="M25 18C25.8284 18 26.5 17.3284 26.5 16.5C26.5 15.6716 25.8284 15 25 15C24.1716 15 23.5 15.6716 23.5 16.5C23.5 17.3284 24.1716 18 25 18Z" fill="#0B4458"/>
    <path d="M24.5 30C25.0523 30 25.5 29.5523 25.5 29C25.5 28.4477 25.0523 28 24.5 28C23.9477 28 23.5 28.4477 23.5 29C23.5 29.5523 23.9477 30 24.5 30Z" fill="#0B4458"/>
    <path d="M24.5 25C25.0523 25 25.5 24.5523 25.5 24C25.5 23.4477 25.0523 23 24.5 23C23.9477 23 23.5 23.4477 23.5 24C23.5 24.5523 23.9477 25 24.5 25Z" fill="#0B4458"/>
    <path d="M21.5 21C22.0523 21 22.5 20.5523 22.5 20C22.5 19.4477 22.0523 19 21.5 19C20.9477 19 20.5 19.4477 20.5 20C20.5 20.5523 20.9477 21 21.5 21Z" fill="#0B4458"/>
    <path d="M17.5002 29C17.4482 29 17.3952 28.992 17.3422 28.975L0.842184 23.475C0.580184 23.387 0.439184 23.104 0.526184 22.842C0.613184 22.58 0.895184 22.437 1.15818 22.526L17.6582 28.026C17.9202 28.114 18.0612 28.397 17.9742 28.659C17.9042 28.867 17.7092 29 17.5002 29ZM17.5002 26C17.3982 26 17.2962 25.969 17.2072 25.905L2.70718 15.405C2.48318 15.243 2.43418 14.93 2.59618 14.707C2.75718 14.483 3.07018 14.433 3.29418 14.596L17.7942 25.096C18.0182 25.258 18.0672 25.571 17.9052 25.794C17.8072 25.929 17.6542 26 17.5002 26ZM17.5002 22C17.3342 22 17.1712 21.917 17.0762 21.767L8.57618 8.26697C8.43018 8.03297 8.50018 7.72397 8.73318 7.57697C8.96918 7.43097 9.27618 7.49997 9.42318 7.73297L17.9232 21.233C18.0702 21.466 18.0002 21.776 17.7662 21.922C17.6842 21.976 17.5912 22 17.5002 22Z" fill="#2F2B2D"/>
    <path d="M17.5 24C17.224 24 17 23.776 17 23.5V5.5C17 5.224 17.224 5 17.5 5C17.776 5 18 5.224 18 5.5V23.5C18 23.776 17.776 24 17.5 24Z" fill="#2F2B2D"/>
    <path d="M3 29C4.10457 29 5 28.1046 5 27C5 25.8954 4.10457 25 3 25C1.89543 25 1 25.8954 1 27C1 28.1046 1.89543 29 3 29Z" fill="#0B4458"/>
    <path d="M3 22C4.10457 22 5 21.1046 5 20C5 18.8954 4.10457 18 3 18C1.89543 18 1 18.8954 1 20C1 21.1046 1.89543 22 3 22Z" fill="#0B4458"/>
    <path d="M7 15C8.10457 15 9 14.1046 9 13C9 11.8954 8.10457 11 7 11C5.89543 11 5 11.8954 5 13C5 14.1046 5.89543 15 7 15Z" fill="#0B4458"/>
    <path d="M14 10C15.1046 10 16 9.10457 16 8C16 6.89543 15.1046 6 14 6C12.8954 6 12 6.89543 12 8C12 9.10457 12.8954 10 14 10Z" fill="#0B4458"/>
    <path d="M7.5 30C8.32843 30 9 29.3284 9 28.5C9 27.6716 8.32843 27 7.5 27C6.67157 27 6 27.6716 6 28.5C6 29.3284 6.67157 30 7.5 30Z" fill="#0B4458"/>
    <path d="M7.5 24C8.32843 24 9 23.3284 9 22.5C9 21.6716 8.32843 21 7.5 21C6.67157 21 6 21.6716 6 22.5C6 23.3284 6.67157 24 7.5 24Z" fill="#0B4458"/>
    <path d="M10.5 18C11.3284 18 12 17.3284 12 16.5C12 15.6716 11.3284 15 10.5 15C9.67157 15 9 15.6716 9 16.5C9 17.3284 9.67157 18 10.5 18Z" fill="#0B4458"/>
    <path d="M11 30C11.5523 30 12 29.5523 12 29C12 28.4477 11.5523 28 11 28C10.4477 28 10 28.4477 10 29C10 29.5523 10.4477 30 11 30Z" fill="#0B4458"/>
    <path d="M11 25C11.5523 25 12 24.5523 12 24C12 23.4477 11.5523 23 11 23C10.4477 23 10 23.4477 10 24C10 24.5523 10.4477 25 11 25Z" fill="#0B4458"/>
    <path d="M14 21C14.5523 21 15 20.5523 15 20C15 19.4477 14.5523 19 14 19C13.4477 19 13 19.4477 13 20C13 20.5523 13.4477 21 14 21Z" fill="#0B4458"/>
</svg>
